<svg xmlns="http://www.w3.org/2000/svg" viewBox="0 0 1855 1130"><path fill="#dfe327" d="M1108.26 55.01q-.13-.49.18-.83a1.25.86-62.3 0 1 .81-.43h238a.5.5 0 0 1 .5.5V846a.49.48-90 0 1-.48.49q-237.18.02-474.52 0c-41.13-.01-83.09-1.76-123.48-10.05-73.77-15.13-130.6-68.29-156.41-138.03-17.17-46.4-22.94-95.99-22.97-145.22q-.18-224.47-.07-448.94c.02-23.68 10.01-43.26 34.4-49.01q6.14-1.45 19.06-1.46 92.83-.07 185.67-.01a.3.3 89.9 0 1 .3.3v490.68c0 46.08 18.97 90.72 66.74 104.53 15.48 4.47 29.91 4.64 48.44 4.66 61.12.09 122.4.82 183.51-.36a.52.51-.6 0 0 .51-.51q.1-294.54.03-589.06c0-2.01-.49-5.31-.06-8.02q.03-.22-.16-.98Zm-74.39 891.07c-13.78-17.92.73-42.2 22.31-41.74 3.05.06 6.17.41 8.99-.29 15.99-3.94 7.39-21.7 18.27-30.83 8.18-6.87 19.08-7.08 27.14-.29 11.68 9.85 8.59 29.58-5.67 34.89-3.61 1.34-8.84 1.37-12.9 2.47-10.21 2.78-10.69 10.59-10.31 19.71.48 11.31-6.84 21.22-17.14 25.23-11.4 4.43-23.41.31-30.69-9.15Z"/><path fill="#333e48" d="M1259.1 997.55a1.62 1.61-.4 0 0-1.6 1.61V1079c0 2.26.47 5.95.08 9.02a1.33.88 84.1 0 1-.44.84q-.58.41-1.28.08-.6-.28-.86-.27l-34.5.32a.49.49-.6 0 1-.5-.49V921a.5.5 0 0 1 .5-.5h36.5a.75.66 90 0 1 .66.75l.01 42.75a.5.42 0 0 0 .5.42q38.04.01 45.32.3c27.65 1.11 41.11 14.64 41.29 42.34q.27 40.6.2 81.21a.73.73 0 0 1-.73.73H1308a.8.76 90 0 1-.76-.8q.05-32.82-.02-65.63c-.03-17.45-2.91-24.66-21.72-24.93q-13.85-.19-26.4-.09Zm-638.07 91.43c-18.49-.1-35.84-3.62-42.99-23.26-2.79-7.65-3.5-14.21-3.51-23.16q-.06-34.68-.02-69.36c.01-5.48 2.09-8.42 7.65-8.43q14.79-.04 29.48-.01a.42.42 0 0 1 .42.42q-.12 38.04-.09 76.07c0 8.3 4.34 16.69 13.53 17.28q6.08.39 32.69.07a.6.56 90 0 0 .56-.6v-92.5a.75.75 0 0 1 .75-.75h36.25a.51.44 0 0 1 .51.44l-.01 123.31a.59.38 0 0 1-.59.38q-51.53.21-74.63.1ZM778 997.5h-33.75a.75.75 0 0 0-.75.75v90a.59.51 89.5 0 1-.5.59l-36.25.16a.77.76-.7 0 1-.78-.75q-.51-61.38.1-122.75a.85.76.3 0 1 .85-.75q68.24-.01 137.08-.03c14.72-.01 29.62 1.59 38.68 14.42q7.74 10.98 7.98 24.05.28 15.81.06 77.4c-.02 3.96-1.34 7.59-5.47 8.15q-5.82.79-31.43.12a.51.51.6 0 1-.5-.51q-.13-32.72-.05-65.34c.01-5.37.24-14.06-2.65-18.51-6.13-9.46-24.4-7.08-33.86-6.95a.52.45-.6 0 0-.51.45v90.5a.5.5 0 0 1-.5.5h-36.01a1.31 1.2-90 0 1-1.2-1.31l.15-89.44a.75.69-90 0 0-.69-.75Zm188.1.03q-13.66-.08-27.27-.02a.62.49-.6 0 0-.61.49l.02 90.25a.8.74 0 0 1-.8.74l-36.69.01a.5.5 0 0 1-.5-.5V965.25a.49.48-90 0 1 .48-.49q39.17-.02 78.52 0c29.13.02 43.02 16.07 42.98 44.8q-.06 38.31.35 78.13a1.33 1.29-.4 0 1-1.33 1.31H985a.54.5-90 0 1-.5-.54q.01-35.01-.01-70.01-.01-9.22-1.59-12.66c-3.2-7.01-9.11-8.22-16.8-8.26Zm66.94-29.62c1.59-2.41 3.35-3.12 6.37-3.13q14.69-.07 28.63-.02a1.55 1.46-89.8 0 1 1.45 1.55l.01 121.94a.75.75 0 0 1-.75.75h-36.5a.5.5 0 0 1-.5-.5V972.25q0-2.39 1.29-4.34Zm130.62 29.64q-37.71-.11-75.42-.03a.52.49 90 0 1-.49-.52v-31.75a.63.44 0 0 1 .63-.44q37.11-.12 74.11-.04c22.69.04 39.38 6.41 45.63 29.79q2.21 8.27 2.26 15.69.24 39.22.08 78.42a.27.27-1.1 0 1-.26.27c-4.14.2-8.88-.11-12.36-.07q-44.25.44-77.34-.1c-17.68-.3-31.97-3.25-38.49-21.48-7.95-22.27.53-50.64 27.23-53.09 19.48-1.79 39.44-.95 59.01-.79q4.19.03 4.49-3.88c.54-7.15-1.13-11.95-9.08-11.98Zm-46.27 59.16q2.11 1.52 4.71 1.53 21.98.04 44.75-.02c8.44-.02 5.98-9.97 5.87-17.71a.51.5-.6 0 0-.51-.49q-24.56-.04-49.13-.02c-9.93.01-13.86 10.8-5.69 16.71Z"/></svg>