<svg width="95" height="26" viewBox="0 0 95 26" fill="none" xmlns="http://www.w3.org/2000/svg">
<path d="M72.3444 23.595V9.32754C72.3444 8.21441 72.0519 7.45879 71.4994 6.90629C70.9144 6.31317 70.0532 5.99629 69.0132 5.99629C68.9319 5.99629 68.8344 5.99629 68.7613 6.00441V20.2719C68.7613 21.3769 69.0538 22.1325 69.6063 22.685C70.1832 23.27 71.0525 23.6032 72.0844 23.6032C72.1657 23.6032 72.2632 23.6032 72.3444 23.6032V23.595ZM72.6694 2.54316C72.6694 1.38129 71.7188 0.430664 70.5488 0.430664C69.3788 0.430664 68.4282 1.38129 68.4282 2.54316C68.4282 3.70504 69.3788 4.67192 70.5488 4.67192C71.7188 4.67192 72.6694 3.72129 72.6694 2.54316ZM61.9282 16.6807V20.28C61.9282 21.385 62.2207 22.1407 62.7732 22.6932C63.35 23.2782 64.2275 23.6113 65.2594 23.6113C65.3407 23.6113 65.4382 23.6113 65.5194 23.6113V15.9413C65.5194 12.6425 64.6175 10.4244 63.0169 8.69379C61.3675 6.92254 58.9057 5.89067 56.0457 5.89067C50.5694 5.89067 46.775 9.90441 46.775 15.1288C46.775 20.3532 50.2932 23.6844 54.8513 23.6844C58.3694 23.6844 60.4738 21.5963 60.4738 19.1425C60.4738 18.2244 60.1894 17.2494 59.5638 16.315C59.06 18.9475 57.5975 20.4019 55.2575 20.4019C52.755 20.4019 50.545 18.5007 50.545 15.0394C50.545 11.5782 52.755 9.30316 56.0619 9.30316C57.7194 9.30316 59.0519 9.88004 60.0594 10.8713C61.2457 12.0413 61.9363 13.845 61.9363 16.6888L61.9282 16.6807ZM89.935 18.8825C89.935 18.8825 89.8619 18.8582 89.8294 18.8175C87.2538 15.4619 82.5332 9.28691 81.5013 7.93816C80.4207 6.52441 79.5675 6.06129 78.4463 6.06129C77.6175 6.06129 76.9513 6.36191 76.4882 6.85754C75.9763 7.41004 75.7163 8.25504 75.7163 9.23004V20.28C75.7163 21.385 76.0007 22.1407 76.5613 22.6932C77.1463 23.2782 77.975 23.6113 78.9825 23.6113C79.0638 23.6113 79.1125 23.6113 79.1857 23.6113V10.9363C79.1857 10.8469 79.2263 10.7982 79.2832 10.7982C79.3319 10.7982 79.3563 10.8144 79.3888 10.8713C80.9 12.8375 86.6282 20.3288 87.725 21.7344C88.8057 23.14 89.6507 23.6194 90.7719 23.6194C91.6088 23.6194 92.275 23.3188 92.73 22.8313C93.2419 22.2788 93.5019 21.4338 93.5019 20.4588V9.40067C93.5019 8.29566 93.2094 7.54004 92.6569 6.97941C92.0719 6.39442 91.2432 6.06941 90.2275 6.06941C90.1544 6.06941 90.1057 6.06941 90.0244 6.06941V18.7444C90.0244 18.8338 89.9838 18.8825 89.9269 18.8825H89.935ZM33.4988 20.2069C33.3607 20.2069 33.2794 20.1582 33.2794 20.0688C33.2794 20.02 33.32 19.955 33.4013 19.89C34.5063 18.9963 41.7944 13.1138 42.9075 12.2038C44.8413 10.6519 45.2475 9.88816 45.2475 8.78316C45.2475 8.09254 44.9225 7.42629 44.435 7.02817C43.85 6.53254 42.9725 6.26441 41.5588 6.26441H29.1438V6.45941C29.1438 7.10129 29.2819 7.80004 29.5988 8.26316C30.1025 8.98629 31.045 9.40067 32.3288 9.40067H40.4782C40.6244 9.40067 40.6975 9.44129 40.6975 9.51441C40.6975 9.57941 40.665 9.62004 40.5675 9.69316C39.4138 10.6275 32.6863 16.055 31.0044 17.3957C29.0625 18.9475 28.6807 19.7275 28.6807 20.8325C28.6807 21.515 29.0057 22.1813 29.4932 22.5794C30.0782 23.075 30.9557 23.3513 32.3775 23.3513H45.3613V23.2294C45.3613 22.3113 45.1013 21.515 44.5488 21.0113C43.915 20.4263 43.0944 20.215 41.5588 20.215H33.4907L33.4988 20.2069Z" fill="black"/>
<path d="M20.5477 9.67694C20.5477 7.60506 18.9552 6.04506 16.6884 6.21569C11.8702 6.58944 11.2527 12.0657 14.389 12.4151C17.5252 12.7644 18.8415 9.31132 18.9065 9.11632C18.9065 9.35194 19.0852 14.1213 14.2265 14.1213C11.6996 14.1213 10.3996 12.0576 10.3996 10.2619C10.3996 7.60506 12.9834 4.96444 16.6234 4.82631C18.6627 4.74506 20.0115 5.23256 21.0596 6.28069C23.2046 8.42569 22.5871 12.4476 20.8484 14.4382C18.094 17.5907 14.2184 18.3951 10.6027 16.7782C6.99524 15.1613 5.69524 10.4732 7.88899 6.54881C8.69337 5.10256 11.6184 1.89319 16.6396 1.89319C23.0177 1.89319 26.2515 6.41069 25.6665 11.7244C25.2196 15.7951 22.7496 18.7444 21.604 19.9876C16.5665 25.4557 9.17274 26.5526 4.50899 23.7007C1.94149 22.1326 0.454616 19.3213 0.779616 16.1444C1.06399 18.4438 2.20962 20.4263 4.11087 21.7263C7.92149 24.3263 14.2915 24.6838 18.8984 19.6138C14.2671 23.0669 8.86399 23.0182 5.16712 20.6132C1.77899 18.4032 0.844617 13.9994 2.51024 9.63632C1.68149 13.5201 3.01399 17.1276 5.95524 19.0044C10.5377 21.9294 17.2084 20.2476 21.4171 15.5351C22.8471 13.9263 23.6759 11.7651 23.6434 9.78257C23.6027 6.48382 21.3034 3.52632 16.664 3.52632C12.0246 3.52632 8.63649 7.20694 8.63649 10.2701C8.63649 13.6663 10.9684 15.6082 14.0152 15.6082C17.0621 15.6082 20.5559 13.7069 20.5559 9.65256L20.5477 9.67694Z" fill="black"/>
</svg>
